<svg width="64" height="64" viewBox="0 0 64 64" fill="none" xmlns="http://www.w3.org/2000/svg">
<g clip-path="url(#clip0_179_3)">
<path fill-rule="evenodd" clip-rule="evenodd" d="M32 0C49.6731 0 64 14.3269 64 32C64 49.6731 49.6731 64 32 64C14.3269 64 0 49.6731 0 32C0 14.3269 14.3269 0 32 0ZM23.3114 37.729L17.6887 45.7585L19.7887 45.704C20.0434 45.6971 20.2935 45.7725 20.502 45.9188C20.7106 46.0651 20.8665 46.2747 20.9466 46.5165L21.6139 48.507L27.5055 40.0945L26.4403 40.3799C25.8417 40.5397 25.2042 40.4554 24.6678 40.1455C24.1313 39.8357 23.7397 39.3257 23.579 38.7274L23.3118 37.7294L23.3114 37.729ZM32.3675 11.6881H32.2175C31.6243 11.706 31.0604 11.9499 30.641 12.3698L28.8649 14.1459L26.4399 13.495C25.8413 13.3356 25.2041 13.4201 24.6677 13.7299C24.1313 14.0396 23.7397 14.5494 23.5786 15.1475L22.9277 17.5725L20.5028 18.2234C19.9047 18.3844 19.3949 18.7761 19.0851 19.3125C18.7754 19.8488 18.691 20.4861 18.8504 21.0846L19.5011 23.5096L17.725 25.2857C17.2872 25.7239 17.0414 26.3179 17.0414 26.9373C17.0414 27.5567 17.2872 28.1507 17.725 28.5889L19.501 30.3649L18.8503 32.7899C18.6908 33.3884 18.7753 34.0257 19.085 34.5621C19.3948 35.0985 19.9046 35.4901 20.5026 35.6512L21.6461 35.9585L14.3855 46.3257C14.2594 46.5063 14.1859 46.7182 14.173 46.938C14.1601 47.1578 14.2085 47.3769 14.3126 47.5709C14.4168 47.7649 14.5727 47.9262 14.763 48.037C14.9533 48.1477 15.1706 48.2035 15.3907 48.1981L18.9701 48.1073L20.1076 51.4994C20.1773 51.7085 20.3039 51.8941 20.4731 52.0354C20.6423 52.1767 20.8475 52.2681 21.0658 52.2994C21.1222 52.3081 21.1793 52.3123 21.2365 52.3119C21.4278 52.3116 21.6162 52.2654 21.7858 52.1771C21.9555 52.0888 22.1015 51.9611 22.2115 51.8046L29.9247 40.7884L30.641 41.5046C31.0793 41.9422 31.6732 42.1879 32.2925 42.1879C32.9118 42.1879 33.5057 41.9422 33.944 41.5046L34.3167 41.1319L41.7881 51.8046C41.8981 51.9611 42.0441 52.0888 42.2138 52.1771C42.3835 52.2653 42.5719 52.3116 42.7631 52.3119C42.8203 52.3123 42.8775 52.3081 42.934 52.2994C43.1522 52.2681 43.3574 52.1767 43.5266 52.0354C43.6958 51.8941 43.8223 51.7085 43.892 51.4994L45.0295 48.1073L48.6089 48.1981C48.8292 48.2039 49.0468 48.1484 49.2374 48.0378C49.428 47.9272 49.5841 47.7658 49.6883 47.5716C49.7926 47.3775 49.8408 47.1582 49.8277 46.9382C49.8146 46.7182 49.7407 46.5062 49.6141 46.3257L42.4481 36.0894L44.0824 35.6519C44.6806 35.491 45.1905 35.0993 45.5003 34.5629C45.8101 34.0265 45.8945 33.3891 45.7349 32.7905L45.0841 30.3655L46.8601 28.5895C47.2977 28.1512 47.5435 27.5572 47.5435 26.9379C47.5435 26.3186 47.2977 25.7246 46.8601 25.2864L45.0841 23.5104L45.7349 21.0854C45.8947 20.4868 45.8104 19.8493 45.5005 19.3129C45.1907 18.7764 44.6807 18.3848 44.0824 18.2241L41.6556 17.5732L41.0066 15.1482C40.8457 14.5501 40.454 14.0402 39.9176 13.7304C39.3812 13.4206 38.7438 13.3362 38.1452 13.4958L35.7202 14.1466L33.944 12.3698C33.5246 11.9498 32.9607 11.706 32.3675 11.6881ZM44.2114 45.704L46.3114 45.7585L41.1125 38.3344L41.0071 38.727C40.8462 39.3252 40.4545 39.8351 39.9181 40.1449C39.3817 40.4547 38.7443 40.539 38.1457 40.3795L36.36 39.9L42.3862 48.5076L43.0534 46.5171C43.1333 46.2752 43.2892 46.0654 43.4978 45.9191C43.7064 45.7727 43.9566 45.6975 44.2114 45.7046V45.704ZM32.2934 20.7415C31.0679 20.7413 29.8698 21.1046 28.8508 21.7853C27.8317 22.466 27.0374 23.4336 26.5682 24.5658C26.0991 25.6979 25.9762 26.9438 26.2151 28.1458C26.4541 29.3478 27.0441 30.4519 27.9105 31.3186C28.777 32.1853 29.881 32.7755 31.0829 33.0148C32.2848 33.254 33.5307 33.1315 34.663 32.6626C35.7953 32.1938 36.7631 31.3997 37.4441 30.3808C38.125 29.3619 38.4886 28.164 38.4888 26.9385C38.4871 25.2957 37.8339 23.7206 36.6725 22.5588C35.511 21.397 33.9362 20.7433 32.2934 20.7411V20.7415Z" fill="white"/>
</g>
<defs>
<clipPath id="clip0_179_3">
<rect width="64" height="64" fill="white"/>
</clipPath>
</defs>
</svg>
